<mxfile host="65bd71144e">
    <diagram id="CxYOuTUWAxzRiOO7EsML" name="第 1 页">
        <mxGraphModel dx="1727" dy="1360" grid="1" gridSize="10" guides="1" tooltips="1" connect="1" arrows="1" fold="1" page="1" pageScale="1" pageWidth="2339" pageHeight="3300" background="#FFFFFF" math="0" shadow="0">
            <root>
                <mxCell id="0"/>
                <mxCell id="1" parent="0"/>
                <mxCell id="11" value="" style="edgeStyle=none;html=1;" edge="1" parent="1" source="3" target="10">
                    <mxGeometry relative="1" as="geometry"/>
                </mxCell>
                <mxCell id="3" value="开启聊天/准备交易" style="strokeWidth=2;html=1;shape=mxgraph.flowchart.start_1;whiteSpace=wrap;" vertex="1" parent="1">
                    <mxGeometry x="1290" y="80" width="100" height="60" as="geometry"/>
                </mxCell>
                <mxCell id="8" value="" style="edgeStyle=none;html=1;exitX=0.45;exitY=1.067;exitDx=0;exitDy=0;exitPerimeter=0;entryX=0.5;entryY=0;entryDx=0;entryDy=0;" edge="1" parent="1" source="4" target="13">
                    <mxGeometry relative="1" as="geometry">
                        <mxPoint x="1250" y="735" as="sourcePoint"/>
                        <mxPoint x="1338.1246092936028" y="550" as="targetPoint"/>
                    </mxGeometry>
                </mxCell>
                <mxCell id="4" value="在双方聊天列表中产生对应聊天室（用户）" style="whiteSpace=wrap;html=1;strokeWidth=2;" vertex="1" parent="1">
                    <mxGeometry x="1280" y="420" width="120" height="60" as="geometry"/>
                </mxCell>
                <mxCell id="12" value="" style="edgeStyle=none;html=1;" edge="1" parent="1" source="10" target="4">
                    <mxGeometry relative="1" as="geometry"/>
                </mxCell>
                <mxCell id="17" value="" style="edgeStyle=none;html=1;entryX=0;entryY=0.5;entryDx=0;entryDy=0;" edge="1" parent="1" source="10" target="18">
                    <mxGeometry relative="1" as="geometry">
                        <mxPoint x="1480" y="350" as="targetPoint"/>
                    </mxGeometry>
                </mxCell>
                <mxCell id="10" value="首次开启" style="rhombus;whiteSpace=wrap;html=1;strokeWidth=2;" vertex="1" parent="1">
                    <mxGeometry x="1300" y="310" width="80" height="80" as="geometry"/>
                </mxCell>
                <mxCell id="22" value="" style="edgeStyle=none;html=1;" edge="1" parent="1" source="13" target="21">
                    <mxGeometry relative="1" as="geometry"/>
                </mxCell>
                <mxCell id="13" value="创建该商品的交易组件并显示到聊天顶部" style="whiteSpace=wrap;html=1;strokeWidth=2;" vertex="1" parent="1">
                    <mxGeometry x="1280" y="550" width="120" height="60" as="geometry"/>
                </mxCell>
                <mxCell id="15" value="否" style="text;html=1;align=center;verticalAlign=middle;resizable=0;points=[];autosize=1;strokeColor=none;fillColor=none;" vertex="1" parent="1">
                    <mxGeometry x="1400" y="315" width="40" height="30" as="geometry"/>
                </mxCell>
                <mxCell id="16" value="是" style="text;html=1;align=center;verticalAlign=middle;resizable=0;points=[];autosize=1;strokeColor=none;fillColor=none;" vertex="1" parent="1">
                    <mxGeometry x="1340" y="385" width="40" height="30" as="geometry"/>
                </mxCell>
                <mxCell id="20" value="" style="edgeStyle=none;html=1;entryX=1;entryY=0.5;entryDx=0;entryDy=0;" edge="1" parent="1" source="18" target="13">
                    <mxGeometry relative="1" as="geometry">
                        <mxPoint x="1550" y="460" as="targetPoint"/>
                        <Array as="points">
                            <mxPoint x="1550" y="580"/>
                        </Array>
                    </mxGeometry>
                </mxCell>
                <mxCell id="18" value="下载聊天历史记录" style="whiteSpace=wrap;html=1;" vertex="1" parent="1">
                    <mxGeometry x="1490" y="320" width="120" height="60" as="geometry"/>
                </mxCell>
                <mxCell id="21" value="买卖双方沟通交易细节" style="whiteSpace=wrap;html=1;strokeWidth=2;" vertex="1" parent="1">
                    <mxGeometry x="1280" y="690" width="120" height="60" as="geometry"/>
                </mxCell>
                <mxCell id="37" value="" style="edgeStyle=none;html=1;entryX=1;entryY=0.5;entryDx=0;entryDy=0;" edge="1" parent="1" source="25" target="29">
                    <mxGeometry relative="1" as="geometry">
                        <mxPoint x="1069.9999999999995" y="1060" as="targetPoint"/>
                    </mxGeometry>
                </mxCell>
                <mxCell id="38" style="edgeStyle=none;html=1;exitX=0.5;exitY=0;exitDx=0;exitDy=0;entryX=1;entryY=1;entryDx=0;entryDy=0;entryPerimeter=0;startArrow=classic;startFill=1;endArrow=none;endFill=0;" edge="1" parent="1" source="25" target="33">
                    <mxGeometry relative="1" as="geometry"/>
                </mxCell>
                <mxCell id="25" value="买家预定" style="rhombus;whiteSpace=wrap;html=1;strokeWidth=2;" vertex="1" parent="1">
                    <mxGeometry x="1130" y="1020" width="80" height="80" as="geometry"/>
                </mxCell>
                <mxCell id="27" value="更新该商品的交易组件中的预定状态为true" style="whiteSpace=wrap;html=1;strokeWidth=2;" vertex="1" parent="1">
                    <mxGeometry x="1110" y="1530" width="120" height="60" as="geometry"/>
                </mxCell>
                <mxCell id="29" value="保持该商品的交易组件中的预定状态为false" style="whiteSpace=wrap;html=1;strokeWidth=2;" vertex="1" parent="1">
                    <mxGeometry x="930" y="1030" width="120" height="60" as="geometry"/>
                </mxCell>
                <mxCell id="34" value="" style="edgeStyle=none;html=1;" edge="1" parent="1" source="33" target="21">
                    <mxGeometry relative="1" as="geometry"/>
                </mxCell>
                <mxCell id="33" value="" style="strokeWidth=2;html=1;shape=mxgraph.flowchart.annotation_2;align=left;labelPosition=right;pointerEvents=1;direction=south;" vertex="1" parent="1">
                    <mxGeometry x="1170" y="765" width="360" height="185" as="geometry"/>
                </mxCell>
                <mxCell id="39" value="是" style="text;html=1;align=center;verticalAlign=middle;resizable=0;points=[];autosize=1;strokeColor=none;fillColor=none;" vertex="1" parent="1">
                    <mxGeometry x="1110" y="1100" width="40" height="30" as="geometry"/>
                </mxCell>
                <mxCell id="47" value="" style="edgeStyle=none;html=1;startArrow=none;startFill=0;endArrow=classic;endFill=1;entryX=0;entryY=0.5;entryDx=0;entryDy=0;" edge="1" parent="1" source="42" target="44">
                    <mxGeometry relative="1" as="geometry">
                        <mxPoint x="1630" y="1060" as="targetPoint"/>
                    </mxGeometry>
                </mxCell>
                <mxCell id="48" value="" style="edgeStyle=none;html=1;startArrow=classic;startFill=1;endArrow=none;endFill=0;entryX=1;entryY=0;entryDx=0;entryDy=0;entryPerimeter=0;" edge="1" parent="1" source="42" target="33">
                    <mxGeometry relative="1" as="geometry"/>
                </mxCell>
                <mxCell id="100" value="" style="edgeStyle=none;html=1;startArrow=none;startFill=0;endArrow=classic;endFill=1;entryX=0.5;entryY=0;entryDx=0;entryDy=0;" edge="1" parent="1" source="42" target="95">
                    <mxGeometry relative="1" as="geometry">
                        <mxPoint x="1530" y="1190" as="targetPoint"/>
                    </mxGeometry>
                </mxCell>
                <mxCell id="42" value="卖家出售" style="rhombus;whiteSpace=wrap;html=1;strokeWidth=2;" vertex="1" parent="1">
                    <mxGeometry x="1490" y="1020" width="80" height="80" as="geometry"/>
                </mxCell>
                <mxCell id="50" value="" style="edgeStyle=none;html=1;startArrow=none;startFill=0;endArrow=classic;endFill=1;entryX=0.917;entryY=1.001;entryDx=0;entryDy=0;entryPerimeter=0;" edge="1" parent="1" source="43" target="49">
                    <mxGeometry relative="1" as="geometry"/>
                </mxCell>
                <mxCell id="43" value="更新该商品的交易组件中的可售状态为true" style="whiteSpace=wrap;html=1;strokeWidth=2;" vertex="1" parent="1">
                    <mxGeometry x="1470" y="1530" width="120" height="60" as="geometry"/>
                </mxCell>
                <mxCell id="44" value="保持该商品的交易组件中的可售状态为false" style="whiteSpace=wrap;html=1;strokeWidth=2;" vertex="1" parent="1">
                    <mxGeometry x="1640" y="1030" width="120" height="60" as="geometry"/>
                </mxCell>
                <mxCell id="45" value="是" style="text;html=1;align=center;verticalAlign=middle;resizable=0;points=[];autosize=1;strokeColor=none;fillColor=none;" vertex="1" parent="1">
                    <mxGeometry x="1560" y="1100" width="40" height="30" as="geometry"/>
                </mxCell>
                <mxCell id="49" value="" style="strokeWidth=2;html=1;shape=mxgraph.flowchart.annotation_2;align=left;labelPosition=right;pointerEvents=1;direction=north;" vertex="1" parent="1">
                    <mxGeometry x="1170" y="1660" width="360" height="70" as="geometry"/>
                </mxCell>
                <mxCell id="51" value="" style="edgeStyle=none;html=1;startArrow=none;startFill=0;endArrow=classic;endFill=1;entryX=1;entryY=0;entryDx=0;entryDy=0;entryPerimeter=0;exitX=0.5;exitY=1;exitDx=0;exitDy=0;" edge="1" parent="1" source="27" target="49">
                    <mxGeometry relative="1" as="geometry">
                        <mxPoint x="1537.2667989793026" y="1600" as="sourcePoint"/>
                        <mxPoint x="1530.3599999999997" y="1675.81" as="targetPoint"/>
                    </mxGeometry>
                </mxCell>
                <mxCell id="55" value="" style="edgeStyle=none;html=1;startArrow=classic;startFill=1;endArrow=none;endFill=0;" edge="1" parent="1" source="54" target="49">
                    <mxGeometry relative="1" as="geometry"/>
                </mxCell>
                <mxCell id="57" value="" style="edgeStyle=none;html=1;startArrow=none;startFill=0;endArrow=classic;endFill=1;" edge="1" parent="1" source="54" target="56">
                    <mxGeometry relative="1" as="geometry"/>
                </mxCell>
                <mxCell id="54" value="判定逻辑与&amp;nbsp;" style="rhombus;whiteSpace=wrap;html=1;align=left;strokeWidth=2;" vertex="1" parent="1">
                    <mxGeometry x="1310" y="1680" width="80" height="80" as="geometry"/>
                </mxCell>
                <mxCell id="59" value="" style="edgeStyle=none;html=1;startArrow=none;startFill=0;endArrow=classic;endFill=1;" edge="1" parent="1" source="56" target="58">
                    <mxGeometry relative="1" as="geometry"/>
                </mxCell>
                <mxCell id="68" value="" style="edgeStyle=none;html=1;startArrow=none;startFill=0;endArrow=classic;endFill=1;" edge="1" parent="1" source="56" target="67">
                    <mxGeometry relative="1" as="geometry"/>
                </mxCell>
                <mxCell id="56" value="&lt;span style=&quot;text-align: center;&quot;&gt;更新该商品的交易组件中的确认交易状态为true&lt;/span&gt;" style="whiteSpace=wrap;html=1;align=left;strokeWidth=2;" vertex="1" parent="1">
                    <mxGeometry x="1290" y="1850" width="120" height="60" as="geometry"/>
                </mxCell>
                <mxCell id="61" value="" style="edgeStyle=none;html=1;startArrow=none;startFill=0;endArrow=classic;endFill=1;" edge="1" parent="1" source="58" target="60">
                    <mxGeometry relative="1" as="geometry"/>
                </mxCell>
                <mxCell id="58" value="系统生成订单号" style="whiteSpace=wrap;html=1;align=left;strokeWidth=2;" vertex="1" parent="1">
                    <mxGeometry x="1290" y="1990" width="120" height="60" as="geometry"/>
                </mxCell>
                <mxCell id="63" value="" style="edgeStyle=none;html=1;startArrow=none;startFill=0;endArrow=classic;endFill=1;" edge="1" parent="1" source="60" target="62">
                    <mxGeometry relative="1" as="geometry"/>
                </mxCell>
                <mxCell id="60" value="系统为买家生成面交二维码，并在订单部分显示该二维码（一周内）" style="whiteSpace=wrap;html=1;align=left;strokeWidth=2;" vertex="1" parent="1">
                    <mxGeometry x="1290" y="2130" width="120" height="60" as="geometry"/>
                </mxCell>
                <mxCell id="72" value="" style="edgeStyle=none;html=1;startArrow=none;startFill=0;endArrow=classic;endFill=1;" edge="1" parent="1" source="62" target="71">
                    <mxGeometry relative="1" as="geometry"/>
                </mxCell>
                <mxCell id="62" value="双方按照约定时间进行面交" style="whiteSpace=wrap;html=1;align=left;strokeWidth=2;" vertex="1" parent="1">
                    <mxGeometry x="1290" y="2270" width="120" height="60" as="geometry"/>
                </mxCell>
                <mxCell id="67" value="锁定该商品" style="whiteSpace=wrap;html=1;align=left;strokeWidth=2;" vertex="1" parent="1">
                    <mxGeometry x="1490" y="1850" width="120" height="60" as="geometry"/>
                </mxCell>
                <mxCell id="75" value="" style="edgeStyle=none;html=1;startArrow=none;startFill=0;endArrow=classic;endFill=1;" edge="1" parent="1" source="71" target="74">
                    <mxGeometry relative="1" as="geometry"/>
                </mxCell>
                <mxCell id="79" value="" style="edgeStyle=none;html=1;startArrow=none;startFill=0;endArrow=classic;endFill=1;" edge="1" parent="1" source="71" target="78">
                    <mxGeometry relative="1" as="geometry"/>
                </mxCell>
                <mxCell id="71" value="卖家扫码" style="rhombus;whiteSpace=wrap;html=1;align=left;strokeWidth=2;" vertex="1" parent="1">
                    <mxGeometry x="1310" y="2400" width="80" height="80" as="geometry"/>
                </mxCell>
                <mxCell id="77" value="" style="edgeStyle=none;html=1;startArrow=none;startFill=0;endArrow=classic;endFill=1;" edge="1" parent="1" source="74" target="76">
                    <mxGeometry relative="1" as="geometry"/>
                </mxCell>
                <mxCell id="74" value="完成交易" style="whiteSpace=wrap;html=1;align=left;strokeWidth=2;" vertex="1" parent="1">
                    <mxGeometry x="1290" y="2570" width="120" height="60" as="geometry"/>
                </mxCell>
                <mxCell id="81" value="" style="edgeStyle=none;html=1;startArrow=none;startFill=0;endArrow=classic;endFill=1;" edge="1" parent="1" source="76" target="80">
                    <mxGeometry relative="1" as="geometry"/>
                </mxCell>
                <mxCell id="76" value="修改订单页面，取消二维码的显示" style="whiteSpace=wrap;html=1;align=left;strokeWidth=2;" vertex="1" parent="1">
                    <mxGeometry x="1290" y="2710" width="120" height="60" as="geometry"/>
                </mxCell>
                <mxCell id="78" value="交易失败，双方信誉分减10。" style="whiteSpace=wrap;html=1;align=left;strokeWidth=2;" vertex="1" parent="1">
                    <mxGeometry x="1485" y="2410" width="120" height="60" as="geometry"/>
                </mxCell>
                <mxCell id="80" value="更新交易组件状态，平台下架该商品" style="whiteSpace=wrap;html=1;align=left;strokeWidth=2;" vertex="1" parent="1">
                    <mxGeometry x="1290" y="2850" width="120" height="60" as="geometry"/>
                </mxCell>
                <mxCell id="84" value="一周内未扫码" style="text;html=1;align=center;verticalAlign=middle;resizable=0;points=[];autosize=1;strokeColor=none;fillColor=none;" vertex="1" parent="1">
                    <mxGeometry x="1365" y="2410" width="100" height="30" as="geometry"/>
                </mxCell>
                <mxCell id="89" value="" style="edgeStyle=none;html=1;startArrow=none;startFill=0;endArrow=classic;endFill=1;" edge="1" parent="1" source="85" target="88">
                    <mxGeometry relative="1" as="geometry"/>
                </mxCell>
                <mxCell id="102" value="" style="edgeStyle=none;html=1;startArrow=none;startFill=0;endArrow=classic;endFill=1;entryX=0.5;entryY=0;entryDx=0;entryDy=0;" edge="1" parent="1" source="85" target="27">
                    <mxGeometry relative="1" as="geometry">
                        <mxPoint x="1170" y="1400" as="targetPoint"/>
                    </mxGeometry>
                </mxCell>
                <mxCell id="85" value="判定信誉分是否合格" style="rhombus;whiteSpace=wrap;html=1;strokeWidth=2;" vertex="1" parent="1">
                    <mxGeometry x="1130" y="1230" width="80" height="80" as="geometry"/>
                </mxCell>
                <mxCell id="88" value="签到赚取积分" style="whiteSpace=wrap;html=1;strokeWidth=2;" vertex="1" parent="1">
                    <mxGeometry x="870" y="1240" width="120" height="60" as="geometry"/>
                </mxCell>
                <mxCell id="93" value="" style="edgeStyle=none;html=1;startArrow=none;startFill=0;endArrow=classic;endFill=1;exitX=0.5;exitY=1;exitDx=0;exitDy=0;" edge="1" parent="1" source="25" target="85">
                    <mxGeometry relative="1" as="geometry">
                        <mxPoint x="1180" y="1210" as="sourcePoint"/>
                    </mxGeometry>
                </mxCell>
                <mxCell id="98" value="" style="edgeStyle=none;html=1;startArrow=none;startFill=0;endArrow=classic;endFill=1;entryX=0;entryY=0.25;entryDx=0;entryDy=0;" edge="1" parent="1" source="95" target="96">
                    <mxGeometry relative="1" as="geometry">
                        <mxPoint x="1870" y="1320" as="targetPoint"/>
                    </mxGeometry>
                </mxCell>
                <mxCell id="95" value="判定信誉分是否合格" style="rhombus;whiteSpace=wrap;html=1;strokeWidth=2;" vertex="1" parent="1">
                    <mxGeometry x="1490" y="1230" width="80" height="80" as="geometry"/>
                </mxCell>
                <mxCell id="96" value="签到赚取积分" style="whiteSpace=wrap;html=1;strokeWidth=2;" vertex="1" parent="1">
                    <mxGeometry x="1740" y="1250" width="120" height="60" as="geometry"/>
                </mxCell>
                <mxCell id="103" value="" style="edgeStyle=none;html=1;startArrow=none;startFill=0;endArrow=classic;endFill=1;exitX=0.5;exitY=1;exitDx=0;exitDy=0;" edge="1" parent="1" source="95" target="43">
                    <mxGeometry relative="1" as="geometry">
                        <mxPoint x="1180" y="1320" as="sourcePoint"/>
                        <mxPoint x="1180" y="1540" as="targetPoint"/>
                    </mxGeometry>
                </mxCell>
            </root>
        </mxGraphModel>
    </diagram>
</mxfile>